<svg width="800" height="800" viewBox="0 0 800 800" fill="none" xmlns="http://www.w3.org/2000/svg">
<rect width="800" height="800" rx="150" fill="#1865F2"/>
<g clip-path="url(#clip0_172_10)">
<path fill-rule="evenodd" clip-rule="evenodd" d="M573.858 381.125L646.425 510.983C618.962 496.501 586.181 502.177 526.992 526.838L435.906 564.209L344.819 601.581C342.773 602.561 340.689 603.496 338.566 604.385C338.598 604.343 338.63 604.299 338.663 604.257C337.602 604.731 336.534 605.195 335.461 605.646C316.884 612.939 295.723 616.948 274.37 618.185C273.916 618.189 273.461 618.191 273.008 618.191C184.086 618.191 112 546.192 112 457.379C112 447.051 112.975 436.952 114.837 427.166C122.447 397.134 137.412 353.763 154.33 316.197L201.197 227.863L285.101 276.182C285.101 276.182 265.828 312.059 241.389 358.23C234.097 370.723 229.92 385.252 229.92 400.755C229.92 447.455 267.824 485.313 314.581 485.313C334.628 485.313 353.048 478.354 367.549 466.723C400.783 443.676 446.866 412.835 446.866 412.835L447.043 412.737C503.725 381.249 539.835 361.191 573.858 381.125Z" fill="white"/>
<path d="M282.079 233.148C309.215 233.148 331.213 211.177 331.213 184.074C331.213 156.971 309.215 135 282.079 135C254.943 135 232.945 156.971 232.945 184.074C232.945 211.177 254.943 233.148 282.079 233.148Z" fill="white"/>
<path d="M325.543 449.829C354.975 449.829 378.835 425.999 378.835 396.602C378.835 367.206 354.975 343.376 325.543 343.376C296.111 343.376 272.252 367.206 272.252 396.602C272.252 425.999 296.111 449.829 325.543 449.829Z" fill="white"/>
<path d="M422.833 174.266C442.588 174.442 463.124 185.15 476.347 205.969L557.228 350.926C540.905 340.676 521.04 341.65 499.95 348.661C477.686 357.514 474.086 359.927 444.013 375.84L422.833 336.587L375.811 418.12C358.425 444.13 354.646 444.534 308.536 427.18C313.479 407.565 287.567 396.998 278.299 372.066L365.384 205.975C380.502 177.286 403.078 174.09 422.833 174.266Z" fill="white"/>
<path fill-rule="evenodd" clip-rule="evenodd" d="M617.832 664.465C620.51 664.819 623.241 665 626.016 665C660.249 665 688 637.283 688 603.091C688 592.473 685.324 582.48 680.609 573.748C680.628 573.752 680.648 573.758 680.666 573.763L665.323 545.964C635.044 530.359 600.52 539.191 541.354 563.329L569.323 627.251C579.691 645.138 598.067 657.914 617.832 664.465Z" fill="white"/>
</g>
<defs>
<clipPath id="clip0_172_10">
<rect width="576" height="530" fill="white" transform="translate(112 135)"/>
</clipPath>
</defs>
</svg>
