<svg width="25" height="25" viewBox="0 0 25 25" fill="none" xmlns="http://www.w3.org/2000/svg">
<path d="M8.63636 24.1136L6.47727 20.4773L2.38636 19.5682L2.78409 15.3636L0 12.1818L2.78409 9L2.38636 4.79545L6.47727 3.88636L8.63636 0.25L12.5 1.89773L16.3636 0.25L18.5227 3.88636L22.6136 4.79545L22.2159 9L25 12.1818L22.2159 15.3636L22.6136 19.5682L18.5227 20.4773L16.3636 24.1136L12.5 22.4659L8.63636 24.1136ZM9.60227 21.2159L12.5 19.9659L15.4545 21.2159L17.0455 18.4886L20.1705 17.75L19.8864 14.5682L21.9886 12.1818L19.8864 9.73864L20.1705 6.55682L17.0455 5.875L15.3977 3.14773L12.5 4.39773L9.54545 3.14773L7.95455 5.875L4.82955 6.55682L5.11364 9.73864L3.01136 12.1818L5.11364 14.5682L4.82955 17.8068L7.95455 18.4886L9.60227 21.2159ZM11.3068 16.2159L17.7273 9.79545L16.1364 8.14773L11.3068 12.9773L8.86364 10.5909L7.27273 12.1818L11.3068 16.2159Z" fill="white"/>
</svg>
