<svg width="279" height="82" viewBox="0 0 279 82" fill="none" xmlns="http://www.w3.org/2000/svg">
<path d="M0 12.0983C15.5 11.6663 31 11.2343 46.5 8.37825C62 5.52225 77.5 0.242252 93 0.00825243C108.5 -0.225748 124 4.58625 139.5 5.58825C155 6.59025 170.5 3.78325 186 3.72825C201.5 3.67325 217 6.36925 232.5 9.30825C248 12.2473 263.5 15.4273 279 18.6083V81.8483C263.5 81.8483 248 81.8483 232.5 81.8483C217 81.8483 201.5 81.8483 186 81.8483C170.5 81.8483 155 81.8483 139.5 81.8483C124 81.8483 108.5 81.8483 93 81.8483C77.5 81.8483 62 81.8483 46.5 81.8483C31 81.8483 15.5 81.8483 0 81.8483V12.0983Z" fill="#A35CEF" fill-opacity="0.19"/>
<path d="M0 5.58831C15.5 6.04531 31 6.50231 46.5 10.2383C62 13.9743 77.5 20.9893 93 24.1883C108.5 27.3873 124 26.7713 139.5 25.1183C155 23.4653 170.5 20.7743 186 15.8183C201.5 10.8623 217 3.64132 232.5 4.65832C248 5.67532 263.5 14.9323 279 24.1883V81.8483C263.5 81.8483 248 81.8483 232.5 81.8483C217 81.8483 201.5 81.8483 186 81.8483C170.5 81.8483 155 81.8483 139.5 81.8483C124 81.8483 108.5 81.8483 93 81.8483C77.5 81.8483 62 81.8483 46.5 81.8483C31 81.8483 15.5 81.8483 0 81.8483V5.58831Z" fill="#A35CEF" fill-opacity="0.19"/>
<path d="M0 27.9084C15.5 24.2364 31 20.5644 46.5 17.6784C62 14.7924 77.5 12.6914 93 13.9584C108.5 15.2254 124 19.8584 139.5 24.1884C155 28.5184 170.5 32.5434 186 31.6284C201.5 30.7134 217 24.8564 232.5 22.3284C248 19.8004 263.5 20.5994 279 21.3984V81.8484C263.5 81.8484 248 81.8484 232.5 81.8484C217 81.8484 201.5 81.8484 186 81.8484C170.5 81.8484 155 81.8484 139.5 81.8484C124 81.8484 108.5 81.8484 93 81.8484C77.5 81.8484 62 81.8484 46.5 81.8484C31 81.8484 15.5 81.8484 0 81.8484V27.9084Z" fill="#A35CEF" fill-opacity="0.19"/>
<path d="M0 34.4185C15.5 31.5485 31 28.6775 46.5 27.9085C62 27.1395 77.5 28.4705 93 26.0485C108.5 23.6265 124 17.4515 139.5 19.5385C155 21.6255 170.5 31.9755 186 33.4885C201.5 35.0015 217 27.6765 232.5 24.1885C248 20.7005 263.5 21.0495 279 21.3985V81.8485C263.5 81.8485 248 81.8485 232.5 81.8485C217 81.8485 201.5 81.8485 186 81.8485C170.5 81.8485 155 81.8485 139.5 81.8485C124 81.8485 108.5 81.8485 93 81.8485C77.5 81.8485 62 81.8485 46.5 81.8485C31 81.8485 15.5 81.8485 0 81.8485V34.4185Z" fill="#A35CEF" fill-opacity="0.19"/>
<path d="M0 38.1382C15.5 39.8502 31 41.5622 46.5 45.5782C62 49.5942 77.5 55.9132 93 53.9482C108.5 51.9832 124 41.7342 139.5 40.9282C155 40.1222 170.5 48.7592 186 53.0182C201.5 57.2772 217 57.1582 232.5 56.7382C248 56.3182 263.5 55.5982 279 54.8782V81.8482C263.5 81.8482 248 81.8482 232.5 81.8482C217 81.8482 201.5 81.8482 186 81.8482C170.5 81.8482 155 81.8482 139.5 81.8482C124 81.8482 108.5 81.8482 93 81.8482C77.5 81.8482 62 81.8482 46.5 81.8482C31 81.8482 15.5 81.8482 0 81.8482V38.1382Z" fill="#A35CEF" fill-opacity="0.19"/>
</svg>
