<svg width="279" height="83" viewBox="0 0 279 83" fill="none" xmlns="http://www.w3.org/2000/svg">
<path d="M0.919922 12.9351C16.3639 12.5041 31.8089 12.0741 47.2529 9.2281C62.6979 6.3821 78.1419 1.1211 93.5869 0.888096C109.031 0.655096 124.476 5.4491 139.92 6.4481C155.364 7.4471 170.809 4.6501 186.253 4.5951C201.698 4.5401 217.142 7.2271 232.587 10.1551C248.031 13.0831 263.476 16.2521 278.92 19.4211V82.4351C263.476 82.4351 248.031 82.4351 232.587 82.4351C217.142 82.4351 201.698 82.4351 186.253 82.4351C170.809 82.4351 155.364 82.4351 139.92 82.4351C124.476 82.4351 109.031 82.4351 93.5869 82.4351C78.1419 82.4351 62.6979 82.4351 47.2529 82.4351C31.8089 82.4351 16.3639 82.4351 0.919922 82.4351V12.9351Z" fill="#0070CC"  fill-opacity="0.19"/>
<path d="M0.919922 6.44819C16.3639 6.90319 31.8089 7.35919 47.2529 11.0812C62.6979 14.8042 78.1419 21.7932 93.5869 24.9812C109.031 28.1692 124.476 27.5552 139.92 25.9082C155.364 24.2612 170.809 21.5802 186.253 16.6412C201.698 11.7032 217.142 4.50819 232.587 5.52119C248.031 6.53519 263.476 15.7582 278.92 24.9812V82.4352C263.476 82.4352 248.031 82.4352 232.587 82.4352C217.142 82.4352 201.698 82.4352 186.253 82.4352C170.809 82.4352 155.364 82.4352 139.92 82.4352C124.476 82.4352 109.031 82.4352 93.5869 82.4352C78.1419 82.4352 62.6979 82.4352 47.2529 82.4352C31.8089 82.4352 16.3639 82.4352 0.919922 82.4352V6.44819Z" fill="#0070CC"  fill-opacity="0.19"/>
<path d="M0.919922 28.6884C16.3639 25.0294 31.8089 21.3714 47.2529 18.4954C62.6979 15.6194 78.1419 13.5264 93.5869 14.7884C109.031 16.0504 124.476 20.6674 139.92 24.9814C155.364 29.2954 170.809 33.3074 186.253 32.3954C201.698 31.4834 217.142 25.6474 232.587 23.1284C248.031 20.6094 263.476 21.4054 278.92 22.2014V82.4354C263.476 82.4354 248.031 82.4354 232.587 82.4354C217.142 82.4354 201.698 82.4354 186.253 82.4354C170.809 82.4354 155.364 82.4354 139.92 82.4354C124.476 82.4354 109.031 82.4354 93.5869 82.4354C78.1419 82.4354 62.6979 82.4354 47.2529 82.4354C31.8089 82.4354 16.3639 82.4354 0.919922 82.4354V28.6884Z" fill="#0070CC"  fill-opacity="0.19"/>
<path d="M0.919922 32.3952C16.3639 38.0482 31.8089 43.7012 47.2529 42.5882C62.6979 41.4752 78.1419 33.5972 93.5869 32.3952C109.031 31.1932 124.476 36.6682 139.92 36.1012C155.364 35.5352 170.809 28.9282 186.253 29.6152C201.698 30.3022 217.142 38.2832 232.587 38.8812C248.031 39.4792 263.476 32.6942 278.92 25.9082V82.4352C263.476 82.4352 248.031 82.4352 232.587 82.4352C217.142 82.4352 201.698 82.4352 186.253 82.4352C170.809 82.4352 155.364 82.4352 139.92 82.4352C124.476 82.4352 109.031 82.4352 93.5869 82.4352C78.1419 82.4352 62.6979 82.4352 47.2529 82.4352C31.8089 82.4352 16.3639 82.4352 0.919922 82.4352V32.3952Z" fill="#0070CC"  fill-opacity="0.19"/>
<path d="M0.919922 38.8807C16.3639 33.5507 31.8089 28.2207 47.2529 27.7607C62.6979 27.3007 78.1419 31.7107 93.5869 36.1007C109.031 40.4917 124.476 44.8627 139.92 43.5147C155.364 42.1657 170.809 35.0967 186.253 35.1747C201.698 35.2527 217.142 42.4777 232.587 43.5147C248.031 44.5507 263.476 39.3997 278.92 34.2477V82.4347C263.476 82.4347 248.031 82.4347 232.587 82.4347C217.142 82.4347 201.698 82.4347 186.253 82.4347C170.809 82.4347 155.364 82.4347 139.92 82.4347C124.476 82.4347 109.031 82.4347 93.5869 82.4347C78.1419 82.4347 62.6979 82.4347 47.2529 82.4347C31.8089 82.4347 16.3639 82.4347 0.919922 82.4347V38.8807Z" fill="#0070CC"  fill-opacity="0.19"/>
<path d="M0.919922 65.7552C16.3639 66.9512 31.8089 68.1472 47.2529 65.7552C62.6979 63.3622 78.1419 57.3802 93.5869 56.4882C109.031 55.5962 124.476 59.7932 139.92 60.1952C155.364 60.5962 170.809 57.2022 186.253 54.6352C201.698 52.0672 217.142 50.3272 232.587 51.8552C248.031 53.3822 263.476 58.1792 278.92 62.9752V82.4352C263.476 82.4352 248.031 82.4352 232.587 82.4352C217.142 82.4352 201.698 82.4352 186.253 82.4352C170.809 82.4352 155.364 82.4352 139.92 82.4352C124.476 82.4352 109.031 82.4352 93.5869 82.4352C78.1419 82.4352 62.6979 82.4352 47.2529 82.4352C31.8089 82.4352 16.3639 82.4352 0.919922 82.4352V65.7552Z" fill="#0070CC"  fill-opacity="0.19"/>
</svg>
