<svg width="1304" height="321" viewBox="0 0 1304 321" fill="none" xmlns="http://www.w3.org/2000/svg">
<g clip-path="url(#clip0_10_11)">
<path fill-rule="evenodd" clip-rule="evenodd" d="M224.514 119.79L259.79 182.992C246.44 175.944 230.505 178.706 201.732 190.709L157.454 208.898L113.176 227.087C112.182 227.564 111.168 228.018 110.136 228.451C110.152 228.431 110.167 228.409 110.183 228.389C109.667 228.62 109.149 228.845 108.627 229.065C99.5962 232.615 89.3097 234.566 78.9299 235.168C78.7094 235.17 78.4882 235.171 78.2677 235.171C35.0417 235.171 0 200.129 0 156.903C0 151.876 0.473792 146.961 1.37915 142.198C5.07848 127.581 12.3531 106.473 20.5771 88.1889L43.3595 45.1968L84.1463 68.7138C84.1463 68.7138 74.7776 86.1753 62.8973 108.647C59.3527 114.727 57.3221 121.798 57.3221 129.344C57.3221 152.073 75.7477 170.499 98.477 170.499C108.222 170.499 117.176 167.111 124.225 161.45C140.381 150.234 162.782 135.223 162.782 135.223L162.868 135.175C190.422 119.85 207.975 110.088 224.514 119.79Z" fill="white"/>
<path d="M82.6772 47.769C95.8682 47.769 106.562 37.0756 106.562 23.8845C106.562 10.6935 95.8682 0 82.6772 0C69.4861 0 58.7927 10.6935 58.7927 23.8845C58.7927 37.0756 69.4861 47.769 82.6772 47.769Z" fill="white"/>
<path d="M103.806 153.229C118.113 153.229 129.711 141.63 129.711 127.323C129.711 113.016 118.113 101.417 103.806 101.417C89.4986 101.417 77.9003 113.016 77.9003 127.323C77.9003 141.63 89.4986 153.229 103.806 153.229Z" fill="white"/>
<path d="M151.099 19.1106C160.702 19.1961 170.685 24.408 177.113 34.5405L216.43 105.092C208.496 100.103 198.839 100.577 188.587 103.989C177.764 108.298 176.014 109.472 161.395 117.218L151.099 98.113L128.241 137.795C119.79 150.455 117.953 150.651 95.5381 142.205C97.9412 132.658 85.3449 127.515 80.8399 115.38L123.173 34.5437C130.522 20.5804 141.496 19.0251 151.099 19.1106Z" fill="white"/>
<path fill-rule="evenodd" clip-rule="evenodd" d="M245.891 257.693C247.192 257.865 248.52 257.953 249.869 257.953C266.51 257.953 280 244.463 280 227.822C280 222.654 278.699 217.79 276.407 213.54C276.417 213.542 276.426 213.545 276.435 213.547L268.976 200.018C254.258 192.423 237.475 196.721 208.714 208.469L222.31 239.58C227.35 248.286 236.283 254.504 245.891 257.693Z" fill="white"/>
</g>
<path d="M374.773 260.723C360.246 260.723 347.751 257.645 337.287 251.49C326.884 245.273 318.883 236.655 313.281 225.637C307.741 214.619 304.972 201.939 304.972 187.598C304.972 173.071 307.772 160.33 313.374 149.373C319.036 138.355 327.069 129.768 337.472 123.613C347.874 117.396 360.246 114.288 374.588 114.288C386.96 114.288 397.794 116.535 407.088 121.028C416.383 125.521 423.738 131.83 429.155 139.955C434.571 148.08 437.557 157.621 438.111 168.578H400.994C399.948 161.499 397.178 155.805 392.685 151.497C388.253 147.126 382.436 144.941 375.234 144.941C369.141 144.941 363.816 146.603 359.261 149.927C354.768 153.189 351.259 157.96 348.736 164.238C346.212 170.517 344.95 178.118 344.95 187.044C344.95 196.092 346.181 203.786 348.643 210.126C351.167 216.466 354.706 221.298 359.261 224.622C363.816 227.946 369.141 229.607 375.234 229.607C379.728 229.607 383.759 228.684 387.33 226.838C390.961 224.991 393.946 222.313 396.286 218.805C398.686 215.235 400.256 210.957 400.994 205.971H438.111C437.495 216.804 434.541 226.345 429.247 234.593C424.015 242.78 416.783 249.181 407.55 253.798C398.317 258.414 387.391 260.723 374.773 260.723ZM503.734 260.63C494.686 260.63 486.622 259.061 479.544 255.921C472.465 252.721 466.864 248.012 462.74 241.795C458.677 235.517 456.646 227.699 456.646 218.343C456.646 210.464 458.092 203.848 460.985 198.492C463.878 193.137 467.818 188.829 472.804 185.566C477.789 182.304 483.452 179.842 489.792 178.18C496.194 176.518 502.903 175.348 509.92 174.671C518.168 173.81 524.816 173.009 529.863 172.271C534.911 171.471 538.573 170.301 540.85 168.762C543.128 167.223 544.267 164.946 544.267 161.93V161.376C544.267 155.528 542.42 151.004 538.727 147.803C535.095 144.603 529.925 143.002 523.216 143.002C516.137 143.002 510.505 144.572 506.319 147.711C502.134 150.789 499.364 154.667 498.01 159.345L461.632 156.39C463.478 147.773 467.11 140.325 472.527 134.046C477.943 127.706 484.93 122.844 493.485 119.458C502.103 116.011 512.074 114.288 523.4 114.288C531.279 114.288 538.819 115.211 546.021 117.058C553.284 118.904 559.717 121.767 565.318 125.644C570.981 129.522 575.443 134.508 578.706 140.602C581.968 146.634 583.599 153.866 583.599 162.299V257.953H546.298V238.286H545.19C542.913 242.718 539.866 246.627 536.049 250.012C532.233 253.336 527.647 255.952 522.292 257.86C516.937 259.707 510.751 260.63 503.734 260.63ZM514.998 233.485C520.784 233.485 525.893 232.347 530.325 230.069C534.757 227.73 538.234 224.591 540.758 220.652C543.282 216.712 544.544 212.25 544.544 207.264V192.214C543.313 193.014 541.62 193.753 539.466 194.43C537.373 195.045 535.003 195.63 532.356 196.184C529.709 196.677 527.063 197.138 524.416 197.569C521.769 197.938 519.368 198.277 517.214 198.585C512.598 199.262 508.566 200.339 505.119 201.816C501.672 203.294 498.994 205.294 497.086 207.818C495.178 210.28 494.224 213.357 494.224 217.051C494.224 222.406 496.163 226.499 500.041 229.33C503.98 232.1 508.966 233.485 514.998 233.485ZM666.373 260.261C655.601 260.261 645.845 257.491 637.104 251.951C628.425 246.35 621.531 238.133 616.422 227.299C611.375 216.404 608.851 203.047 608.851 187.228C608.851 170.978 611.467 157.467 616.699 146.696C621.931 135.862 628.887 127.768 637.566 122.413C646.306 116.996 655.878 114.288 666.28 114.288C674.221 114.288 680.837 115.642 686.131 118.35C691.486 120.997 695.795 124.321 699.057 128.322C702.381 132.261 704.905 136.139 706.628 139.955H707.828V68.8617H747.069V257.953H708.29V235.24H706.628C704.782 239.179 702.166 243.088 698.78 246.965C695.456 250.782 691.117 253.952 685.762 256.475C680.468 258.999 674.005 260.261 666.373 260.261ZM678.837 228.961C685.177 228.961 690.532 227.238 694.902 223.791C699.334 220.282 702.72 215.389 705.059 209.11C707.459 202.832 708.659 195.476 708.659 187.044C708.659 178.611 707.49 171.286 705.151 165.069C702.812 158.852 699.426 154.051 694.995 150.666C690.563 147.28 685.177 145.588 678.837 145.588C672.374 145.588 666.926 147.342 662.495 150.85C658.063 154.359 654.708 159.222 652.431 165.438C650.153 171.655 649.015 178.857 649.015 187.044C649.015 195.292 650.153 202.586 652.431 208.926C654.77 215.204 658.124 220.128 662.495 223.698C666.926 227.207 672.374 228.961 678.837 228.961ZM844.038 260.723C829.45 260.723 816.893 257.768 806.367 251.859C795.903 245.888 787.84 237.455 782.177 226.561C776.514 215.604 773.683 202.647 773.683 187.69C773.683 173.102 776.514 160.299 782.177 149.281C787.84 138.263 795.811 129.676 806.09 123.521C816.431 117.366 828.557 114.288 842.468 114.288C851.824 114.288 860.534 115.796 868.597 118.812C876.722 121.767 883.801 126.229 889.833 132.2C895.927 138.17 900.666 145.68 904.052 154.728C907.437 163.715 909.13 174.241 909.13 186.305V197.107H789.379V172.732H872.106C872.106 167.07 870.875 162.053 868.413 157.683C865.951 153.312 862.534 149.896 858.164 147.434C853.855 144.91 848.839 143.649 843.114 143.649C837.144 143.649 831.85 145.034 827.234 147.803C822.679 150.512 819.109 154.174 816.523 158.791C813.938 163.346 812.615 168.424 812.553 174.025V197.2C812.553 204.217 813.846 210.28 816.431 215.389C819.078 220.498 822.802 224.437 827.603 227.207C832.404 229.977 838.098 231.362 844.684 231.362C849.054 231.362 853.055 230.746 856.687 229.515C860.318 228.284 863.427 226.437 866.012 223.975C868.597 221.513 870.567 218.497 871.921 214.927L908.299 217.328C906.452 226.068 902.667 233.701 896.942 240.225C891.28 246.688 883.955 251.736 874.968 255.367C866.043 258.937 855.733 260.723 844.038 260.723ZM934.798 257.953V116.134H972.283V141.156H973.945C976.9 132.846 981.824 126.291 988.718 121.49C995.612 116.688 1003.86 114.288 1013.46 114.288C1023.19 114.288 1031.47 116.719 1038.3 121.582C1045.13 126.383 1049.69 132.908 1051.96 141.156H1053.44C1056.33 133.031 1061.57 126.537 1069.14 121.674C1076.77 116.75 1085.79 114.288 1096.19 114.288C1109.42 114.288 1120.16 118.504 1128.41 126.937C1136.72 135.308 1140.88 147.188 1140.88 162.576V257.953H1101.64V170.332C1101.64 162.453 1099.54 156.544 1095.36 152.605C1091.17 148.665 1085.94 146.696 1079.66 146.696C1072.52 146.696 1066.95 148.973 1062.95 153.528C1058.95 158.021 1056.95 163.961 1056.95 171.348V257.953H1018.82V169.501C1018.82 162.545 1016.82 157.006 1012.82 152.882C1008.88 148.758 1003.68 146.696 997.212 146.696C992.842 146.696 988.903 147.803 985.394 150.019C981.947 152.174 979.208 155.221 977.177 159.16C975.146 163.038 974.13 167.593 974.13 172.825V257.953H934.798ZM1191.15 311.134C1186.16 311.134 1181.49 310.734 1177.12 309.934C1172.81 309.196 1169.24 308.241 1166.41 307.072L1175.27 277.711C1179.89 279.127 1184.04 279.896 1187.73 280.019C1191.49 280.143 1194.72 279.281 1197.43 277.434C1200.2 275.588 1202.45 272.448 1204.17 268.017L1206.48 262.015L1155.6 116.134H1196.97L1226.33 220.282H1227.81L1257.44 116.134H1299.08L1243.96 273.279C1241.32 280.912 1237.72 287.56 1233.16 293.223C1228.67 298.947 1222.97 303.348 1216.08 306.426C1209.19 309.565 1200.88 311.134 1191.15 311.134Z" fill="white"/>
<defs>
<clipPath id="clip0_10_11">
<rect width="280" height="257.953" fill="white"/>
</clipPath>
</defs>
</svg>
