<svg width="500" height="461" viewBox="0 0 500 461" fill="none" xmlns="http://www.w3.org/2000/svg">
<g clip-path="url(#clip0_429_776)">
<path fill-rule="evenodd" clip-rule="evenodd" d="M400.919 213.911L463.911 326.772C440.071 314.185 411.615 319.118 360.236 340.551L281.168 373.032L202.1 405.512C200.324 406.364 198.514 407.176 196.672 407.949C196.699 407.912 196.727 407.874 196.756 407.837C195.835 408.249 194.908 408.652 193.976 409.045C177.85 415.383 159.482 418.867 140.946 419.942C140.552 419.946 140.157 419.948 139.764 419.948C62.5744 419.948 0 357.373 0 280.184C0 271.207 0.846058 262.43 2.46277 253.925C9.06871 227.824 22.0591 190.13 36.7449 157.48L77.4277 80.7087L150.261 122.703C150.261 122.703 133.531 153.885 112.317 194.012C105.987 204.87 102.361 217.497 102.361 230.971C102.361 271.559 135.264 304.462 175.852 304.462C193.253 304.462 209.243 298.413 221.831 288.304C250.68 268.274 290.682 241.47 290.682 241.47L290.836 241.385C340.039 214.018 371.385 196.585 400.919 213.911Z" fill="white"/>
<path d="M147.638 85.3018C171.194 85.3018 190.289 66.2064 190.289 42.6509C190.289 19.0955 171.194 0 147.638 0C124.083 0 104.987 19.0955 104.987 42.6509C104.987 66.2064 124.083 85.3018 147.638 85.3018Z" fill="white"/>
<path d="M185.367 273.622C210.916 273.622 231.627 252.911 231.627 227.362C231.627 201.814 210.916 181.102 185.367 181.102C159.819 181.102 139.107 201.814 139.107 227.362C139.107 252.911 159.819 273.622 185.367 273.622Z" fill="white"/>
<path d="M269.821 34.1264C286.969 34.2792 304.796 43.5861 316.273 61.6798L386.483 187.664C372.314 178.756 355.07 179.602 336.763 185.696C317.436 193.39 314.311 195.487 288.207 209.318L269.821 175.202L229.003 246.063C213.911 268.669 210.63 269.02 170.604 253.937C174.895 236.89 152.402 227.706 144.357 206.037L219.952 61.6855C233.075 36.7511 252.672 33.9736 269.821 34.1264Z" fill="white"/>
<path fill-rule="evenodd" clip-rule="evenodd" d="M439.09 460.165C441.414 460.472 443.786 460.63 446.194 460.63C475.91 460.63 500 436.541 500 406.824C500 397.596 497.677 388.911 493.584 381.321C493.601 381.325 493.618 381.331 493.634 381.335L480.315 357.175C454.031 343.612 424.063 351.287 372.703 372.266L396.981 427.821C405.981 443.367 421.933 454.471 439.09 460.165Z" fill="white"/>
</g>
<defs>
<clipPath id="clip0_429_776">
<rect width="500" height="460.63" fill="white"/>
</clipPath>
</defs>
</svg>
